# xmcd CD database file
#
# Track frame offsets:
#	150
#	14590
#	32679
#	45999
#	64405
#	84347
#	104165
#	125504
#	143949
#	161854
#	177738
#
# Disc length: 2649 seconds
#
# Revision: 5
# Processed by: cddbd v1.5.2PL0 Copyright (c) Steve Scherf et al.
# Submitted via: CDex 1.70beta3
#
DISCID=a00a570b
DTITLE=Various Artist - Beginner's Guide To Swing - CD1 - Electro-Swing
DYEAR=1900
DGENRE=Jazz - Swing
TTITLE0=Analogik - Gypsy Doodle
TTITLE1=[dunkelbunt] feat. Boban i Marko Marcovi Orkestar - Cinnamon Girl
TTITLE2=Tim Tim - Rum'n'Cocacola (Shake It Up Well)
TTITLE3=Club Des Belugas feat Fred Astaire - Puttin On The Ritz (Club des Belugas Remix)
TTITLE4=Kormac - Harry's Record Machine
TTITLE5=Chinese Man - Artichaut
TTITLE6=Parov Stelar - Libella Swing
TTITLE7=Caravan Palace - Dragons
TTITLE8=De-Phazz - The Mambo Craze
TTITLE9=Mestizo and Mike Gao - Pick Up 52's
TTITLE10=Funky DL 1947 (feat. Lei-An and Xanton Blacq)
EXTD=
EXTT0=
EXTT1=
EXTT2=
EXTT3=
EXTT4=
EXTT5=
EXTT6=
EXTT7=
EXTT8=
EXTT9=
EXTT10=
PLAYORDER=
